<svg xmlns="http://www.w3.org/2000/svg" viewBox="0 0 560 200" width="560" height="200" role="presentation" aria-hidden="true">
  <g fill="none" stroke="#DAA017" stroke-width="1.3" stroke-linecap="round" stroke-linejoin="round" opacity=".55">
    <!-- far peaks -->
    <path d="M18 96 82 30l30 34 26-22 44 54"/>
    <path d="M60 62l14 12 12-10"/>
    <path d="M196 92l58-58 26 30 22-18 40 46"/>
    <path d="M236 60l12 11 11-9"/>
    <path d="M356 98l54-52 24 28 20-16 38 40"/>
    <path d="M394 70l11 10 10-8"/>
    <!-- ridge line -->
    <path d="M0 104h560" opacity=".5"/>
    <!-- winding road -->
    <path d="M120 200c26-38 96-30 132-56 30-22 12-44 46-52 30-7 52 10 84 6"/>
    <path d="M186 200c22-30 84-24 116-48 30-22 16-40 46-47 28-6 48 8 78 5"/>
    <path d="M150 186c8-11 20-16 32-20M206 156c10-8 22-12 34-15M258 128c10-8 16-16 18-25"/>
    <!-- trees -->
    <path d="M470 104V88M464 96l6-8 6 8M464 88l6-8 6 8"/>
    <path d="M506 104V90M501 98l5-7 5 7M501 91l5-7 5 7"/>
    <path d="M92 200v-16M86 192l6-8 6 8M86 184l6-8 6 8"/>
  </g>
</svg>
